<svg xmlns="http://www.w3.org/2000/svg" version="1.1" xmlns:xlink="http://www.w3.org/1999/xlink" width="1000" height="865.83075"><svg xmlns="http://www.w3.org/2000/svg" version="1.0" width="1000.0" height="865.83075" id="SvgjsSvg1005">
<g style="opacity:1.0;fill:#ffd500;fill-opacity:1;stroke:#000000;stroke-width:2.0;stroke-opacity:1.00;">
<polygon points=" 595.234,432.823 309.524,432.824 166.668,680.258 261.905,680.258 357.143,680.259 404.761,762.737 23.81,762.737 452.274,20.615 547.72,20.616 499.996,102.908 357.144,350.344 452.38,350.345 547.615,350.343"></polygon>
<polygon points=" 595.234,432.823 690.474,432.823 547.618,680.257 499.999,597.78 547.616,515.301"></polygon>
<polygon points=" 499.997,762.737 547.618,680.257 642.855,680.258 738.092,680.258 785.713,762.737"></polygon>
</g>
<g style="opacity:1.0;fill:#575c55;fill-opacity:1;stroke:#000000;stroke-width:2.0;stroke-opacity:1.00;">
<polygon points=" 595.234,432.823 547.616,515.301 452.38,515.3 357.142,515.301 309.524,432.824"></polygon>
<polygon points=" 595.234,432.823 547.615,350.343 499.998,267.866 547.616,185.388 690.474,432.823"></polygon>
<polygon points=" 499.997,762.737 785.713,762.737 738.092,680.258 690.474,597.779 738.094,515.302 880.95,762.738 928.567,845.215 71.43,845.216 23.81,762.737 404.761,762.737 357.143,680.259 309.524,597.78 357.142,515.301"></polygon>
</g>
<g style="opacity:1.0;fill:#a855f7;fill-opacity:1;stroke:#000000;stroke-width:2.0;stroke-opacity:1.00;">
<polygon points=" 309.524,597.78 261.905,680.258 166.668,680.258 309.524,432.824 357.142,515.301"></polygon>
<polygon points=" 452.38,350.345 357.144,350.344 499.996,102.908 547.72,20.616 595.232,102.909 642.853,185.388 976.191,762.738 928.567,845.215 880.95,762.738 738.094,515.302 690.474,597.779 642.855,680.258 547.618,680.257 690.474,432.823 547.616,185.388 499.998,267.866"></polygon>
<polygon points=" 499.997,762.737 357.142,515.301 452.38,515.3 499.999,597.78 547.618,680.257"></polygon>
</g>
</svg><style>@media (prefers-color-scheme: light) { :root { filter: none; } }
@media (prefers-color-scheme: dark) { :root { filter: none; } }
</style></svg>